<svg xmlns="http://www.w3.org/2000/svg" xmlns:svg="http://www.w3.org/2000/svg" x="0" y="0" version="1.1" viewBox="0 0 100 100"><g><path font-stretch="normal" style="text-indent:0;text-align:start;line-height:normal;text-transform:none;block-progression:tb;marker:none;-inkscape-font-specification:Sans" fill="#000" fill-opacity="1" fill-rule="nonzero" stroke="none" stroke-width="4" d="M 49.78125 5.96875 A 2.0002 2.0002 0 0 0 48 8 L 48 48 L 8 48 A 2.0002 2.0002 0 0 0 7.8125 48 A 2.0021961 2.0021961 0 1 0 8 52 L 48 52 L 48 92 A 2.0002 2.0002 0 1 0 52 92 L 52 52 L 92 52 A 2.0002 2.0002 0 1 0 92 48 L 52 48 L 52 8 A 2.0002 2.0002 0 0 0 49.78125 5.96875 z" baseline-shift="baseline" color="#000" direction="ltr" display="inline" enable-background="accumulate" font-family="Sans" font-size="medium" font-style="normal" font-variant="normal" font-weight="normal" letter-spacing="normal" opacity="1" overflow="visible" text-anchor="start" text-decoration="none" transform="translate(0,-952.36218) translate(0,952.36218)" visibility="visible" word-spacing="normal" writing-mode="lr-tb"/></g></svg>